#!OML:ASF H:\Terrain\Patient Classification 1\Walking\steve\steve.ASF
:FULLY-SPECIFIED
:DEGREES
173
root 8.20206 15.7563 -0.318873 7.64296 4.23986 4.55203
lowerback 2.10609 -1.39035 -2.33573
upperback -3.18189 -1.93045 0.72061
thorax -4.36179 -0.87003 2.16448
lowerneck -11.0828 -0.227005 -1.80023
upperneck 11.6778 -0.0890809 0.611043
head 5.33836 -0.080317 0.477615
rclavicle 5.24295e-015 0
rhumerus -94.7613 -30.7864 3.61376
rradius 12.966
rwrist 58.452
rhand -16.7007 -36.0187
rfingers 7.12502
rthumb 9.52416 -65.7834
lclavicle 5.24295e-015 0
lhumerus -18.2672 -10.4985 85.785
lradius 61.0292
lwrist 25.7551
lhand -29.1499 -20.6144
lfingers 7.12502
lthumb -2.49652 9.35072
rfemur -44.9977 0.127225 18.2597
rtibia 29.0947
rfoot -8.44655 4.24174
rtoes -5.91682
lfemur 24.7854 -1.10376 -26.5333
ltibia -1.90833e-014
lfoot 3.14769 -3.07191
ltoes -8.09028
174
root 8.21318 15.7626 0.00579503 7.37299 4.07203 4.88672
lowerback 1.8649 -1.36294 -2.3871
upperback -2.98493 -1.89079 0.647543
thorax -4.02283 -0.857274 2.10458
lowerneck -11.5334 -0.274337 -1.4729
upperneck 11.9476 -0.0917796 -0.166907
head 5.49862 -0.124057 0.180382
rclavicle -1.46852e-014 -7.15625e-015
rhumerus -95.4381 -31.1995 5.19579
rradius 12.8671
rwrist 60.1013
rhand -16.8691 -35.9692
rfingers 7.12502
rthumb 9.36165 -65.7413
lclavicle -1.46852e-014 -7.15625e-015
lhumerus -18.6991 -10.2889 85.8474
lradius 61.6768
lwrist 26.763
lhand -29.1595 -20.8
lfingers 7.12502
lthumb -2.50579 9.16504
rfemur -44.7639 -0.203058 18.0871
rtibia 30.8652
rfoot -6.36189 3.74763
rtoes -1.47565
lfemur 26.0048 -1.16077 -26.9197
ltibia 4.45278e-014
lfoot 6.62566 -1.51182
ltoes -6.71099
175
root 8.21572 15.7583 0.298515 7.35906 3.83751 4.94438
lowerback 1.82748 -1.28997 -2.2206
upperback -2.93491 -1.78608 0.630304
thorax -3.96023 -0.811922 1.98634
lowerneck -11.8002 -0.266269 -1.30794
upperneck 11.8078 -0.0488731 -0.574214
head 5.49961 -0.12486 0.0289318
rclavicle 4.96962e-016 3.97569e-015
rhumerus -96.4451 -31.7768 6.96157
rradius 12.8399
rwrist 62.0392
rhand -17.2252 -35.6905
rfingers 7.12502
rthumb 9.01807 -65.4777
lclavicle 4.96962e-016 3.97569e-015
lhumerus -19.0634 -9.89351 85.8927
lradius 62.0676
lwrist 27.3708
lhand -28.953 -20.4225
lfingers 7.12502
lthumb -2.3063 9.5448
rfemur -44.9764 0.0917827 17.9266
rtibia 32.6567
rfoot -5.292 3.44485
rtoes -1.63032
lfemur 26.9239 -1.17599 -26.9401
ltibia -3.49861e-014
lfoot 11.3247 0.724109
ltoes -4.6369
176
root 8.22033 15.7464 0.56733 7.72464 3.30697 4.69497
lowerback 1.74299 -1.10955 -1.78825
upperback -3.12792 -1.52348 0.757521
thorax -4.1327 -0.68844 1.86335
lowerneck -11.8882 -0.201841 -1.35674
upperneck 11.5504 0.0776441 -0.803112
head 5.43376 -0.0803435 -0.0246231
rclavicle 4.19933e-015 7.95139e-016
rhumerus -96.1574 -32.2643 6.577
rradius 12.9016
rwrist 62.1212
rhand -17.4617 -35.5682
rfingers 7.12502
rthumb 8.78983 -65.3652
lclavicle 4.19933e-015 7.95139e-016
lhumerus -19.7663 -9.19102 86.1766
lradius 62.2334
lwrist 27.4122
lhand -28.8701 -19.8174
lfingers 7.12502
lthumb -2.22626 10.1507
rfemur -45.5868 0.821038 18.0578
rtibia 34.5444
rfoot -4.69874 2.92254
rtoes -3.02873
lfemur 22.0059 -0.895051 -26.5697
ltibia 10.2341
lfoot 12.962 1.4618
ltoes -1.40898
177
root 8.22968 15.7498 0.84289 7.59082 2.99224 3.97454
lowerback 2.10069 -0.995116 -0.898394
upperback -3.2311 -1.32571 1.08117
thorax -4.46321 -0.609028 1.69804
lowerneck -11.9548 -0.119644 -1.43175
upperneck 11.5414 0.244194 -1.10026
head 5.4425 -0.0240863 -0.0921527
rclavicle -2.17421e-014 5.56597e-015
rhumerus -94.6733 -32.705 4.34654
rradius 13.0331
rwrist 60.9034
rhand -17.6489 -35.9026
rfingers 7.12502
rthumb 8.60916 -65.7071
lclavicle -2.17421e-014 5.56597e-015
lhumerus -20.7441 -9.05617 86.5821
lradius 62.1167
lwrist 27.9073
lhand -29.4316 -19.5236
lfingers 7.12502
lthumb -2.76852 10.4382
rfemur -45.2654 1.10976 18.8743
rtibia 36.2552
rfoot -4.76534 2.91045
rtoes -2.91581
lfemur 18.5587 -1.35247 -25.9815
ltibia 18.425
lfoot 15.0513 4.56453
ltoes 4.61366
178
root 8.24534 15.7546 1.11198 7.23524 2.63263 3.36979
lowerback 2.51774 -0.865532 0.0157461
upperback -3.10937 -1.10419 1.25255
thorax -4.59473 -0.526113 1.356
lowerneck -11.5946 -0.0296762 -1.65735
upperneck 11.0801 0.373711 -0.976226
head 5.23723 0.0438117 -0.00612469
rclavicle 2.97432e-014 -8.74653e-015
rhumerus -93.9902 -33.5376 3.296
rradius 13.0705
rwrist 61.0749
rhand -18.1533 -36.1219
rfingers 7.12502
rthumb 8.12236 -65.9458
lclavicle 2.97432e-014 -8.74653e-015
lhumerus -21.5572 -8.96321 86.9131
lradius 61.923
lwrist 28.392
lhand -29.5214 -19.1181
lfingers 7.12502
lthumb -2.85525 10.8425
rfemur -44.7684 1.03949 19.7677
rtibia 37.9772
rfoot -5.34955 3.59744
rtoes -3.148
lfemur 16.0999 -1.32431 -25.402
ltibia 25.1046
lfoot 17.0338 7.05702
ltoes 5.64304
179
root 8.24971 15.7546 1.35521 7.01355 2.33927 3.2558
lowerback 2.98216 -0.701401 0.315448
upperback -2.94979 -0.868097 1.23654
thorax -4.70272 -0.419027 1.16169
lowerneck -10.5463 0.140123 -1.91185
upperneck 9.75385 0.5541 -0.598049
head 4.64839 0.163029 0.164327
rclavicle 3.97569e-016 -3.97569e-015
rhumerus -93.7521 -34.6583 2.67504
rradius 13.0857
rwrist 61.5152
rhand -18.7256 -36.1704
rfingers 7.12502
rthumb 7.57 -66.0149
lclavicle 3.97569e-016 -3.97569e-015
lhumerus -22.1133 -8.80806 87.1875
lradius 61.7791
lwrist 28.9164
lhand -29.2706 -18.2915
lfingers 7.12502
lthumb -2.61303 11.6723
rfemur -44.5918 0.979683 20.1056
rtibia 39.6991
rfoot -5.72506 4.66798
rtoes -1.073
lfemur 13.7568 -0.975096 -25.1339
ltibia 30.8167
lfoot 19.4803 9.02433
ltoes 4.44472
180
root 8.2522 15.7678 1.60835 6.72838 2.23813 3.40132
lowerback 3.41724 -0.569376 0.214784
upperback -2.75225 -0.695772 1.21605
thorax -4.74643 -0.33052 1.1886
lowerneck -11.2414 -0.120571 -1.59979
upperneck 9.84811 0.219848 -1.00516
head 4.796 -0.0181776 -0.035971
rclavicle -1.50082e-014 1.27222e-014
rhumerus -92.4476 -35.7486 0.385918
rradius 13.0934
rwrist 60.3596
rhand -18.8208 -36.327
rfingers 7.12502
rthumb 7.4781 -66.1748
lclavicle -1.50082e-014 1.27222e-014
lhumerus -22.4629 -9.17513 87.5281
lradius 61.216
lwrist 29.8381
lhand -29.6744 -18.1101
lfingers 7.12502
lthumb -3.00306 11.8485
rfemur -44.0832 0.676802 20.1781
rtibia 41.1528
rfoot -5.98331 5.86873
rtoes 0.754945
lfemur 11.6327 -0.881704 -25.1571
ltibia 36.0127
lfoot 20.8857 13.0601
ltoes 6.09985
181
root 8.26042 15.7951 1.87751 6.2854 2.26495 3.42406
lowerback 3.78475 -0.492596 0.303197
upperback -2.45619 -0.588252 1.20504
thorax -4.64997 -0.280948 1.12098
lowerneck -11.5998 -0.249916 -1.50506
upperneck 9.72855 0.0416256 -1.04941
head 4.81881 -0.104932 -0.0785194
rclavicle -7.05686e-015 1.43125e-014
rhumerus -90.5392 -36.8732 -2.63036
rradius 12.9677
rwrist 58.4949
rhand -18.8571 -36.3747
rfingers 7.12502
rthumb 7.44308 -66.2238
lclavicle -7.05686e-015 1.43125e-014
lhumerus -22.627 -9.44045 87.8698
lradius 60.063
lwrist 30.3812
lhand -29.7006 -18.3897
lfingers 7.12502
lthumb -3.02835 11.5685
rfemur -43.0004 0.122985 20.3943
rtibia 42.1769
rfoot -6.70077 6.78395
rtoes 1.28097
lfemur 9.95727 -0.775528 -25.1253
ltibia 40.7957
lfoot 20.0865 18.0105
ltoes 8.05816
